<svg width="12" height="17" viewBox="0 0 12 17" fill="none" xmlns="http://www.w3.org/2000/svg">
<path d="M7.51569 7.33983H11.0001C11.4157 7.33983 11.7907 7.59921 11.9094 7.98671C12.0813 8.37733 11.9719 8.81796 11.6594 9.09296L3.65944 16.093C3.30631 16.3992 2.78975 16.4242 2.41225 16.1492C2.03444 15.8742 1.89694 15.3742 2.081 14.9461L4.48444 9.33983H0.971938C0.583501 9.33983 0.21047 9.08046 0.0639383 8.69296C-0.0825929 8.30233 0.0280134 7.86171 0.341626 7.58671L8.34069 0.587271C8.69381 0.279833 9.20944 0.256427 9.58756 0.530896C9.96569 0.805458 10.1032 1.30452 9.91881 1.7339L7.51569 7.33983Z" fill="#378B4F"/>
</svg>
