<svg width="16" height="17" viewBox="0 0 16 17" fill="none" xmlns="http://www.w3.org/2000/svg">
<path d="M15.8624 4.1777C15.7716 3.79989 15.2921 3.67364 15.0174 3.94839L12.6252 6.34089L10.0283 6.34088V3.74401L12.4205 1.35151C12.6952 1.07685 12.5689 0.59713 12.1913 0.506505C11.4509 0.328599 10.6494 0.315537 9.81876 0.514268C7.89845 0.973643 6.40001 2.60489 6.09376 4.55489C5.93113 5.3652 6.00926 6.17457 6.25301 6.90582L0.687383 12.4714C-0.191367 13.3502 -0.191367 14.7743 0.687383 15.6527C1.09863 16.0933 1.67363 16.3402 2.22176 16.3402C2.76988 16.3402 3.37301 16.1205 3.8127 15.6811L9.37832 10.1155C10.1114 10.3573 10.9193 10.4355 11.7586 10.3031C13.7089 9.99564 15.3399 8.49689 15.7993 6.57814C16.053 5.71832 16.0405 4.91832 15.8624 4.1777ZM2.49988 14.5902C2.08582 14.5902 1.74988 14.2543 1.74988 13.8402C1.74988 13.4258 2.08582 13.0902 2.49988 13.0902C2.91395 13.0902 3.24988 13.4258 3.24988 13.8402C3.24988 14.2558 2.91395 14.5902 2.49988 14.5902Z" fill="#378B4F"/>
</svg>
