<svg width="16" height="17" viewBox="0 0 16 17" fill="none" xmlns="http://www.w3.org/2000/svg">
<path d="M3.68125 4.31203H6.46875C8.96563 0.223181 12.7969 0.0732128 15.1219 0.504369C15.4875 0.571713 15.7688 0.854213 15.8344 1.21734C16.2656 3.54328 16.1156 7.37453 12 9.84328V12.6589C12 13.4558 11.5813 14.1902 10.8969 14.5964L8.13125 16.2339C7.9 16.3714 7.6125 16.3745 7.37813 16.2433C7.14375 16.1089 7 15.8589 7 15.5901V12.0058C7 11.2964 6.71875 10.5933 6.21875 10.0933C5.71875 9.59328 5.04375 9.34015 4.33438 9.34015H0.750002C0.480627 9.34015 0.231689 9.1964 0.0983141 8.96202C-0.0350922 8.72765 -0.0325609 8.44015 0.104908 8.2089L1.74469 5.44328C2.14969 4.7589 2.88531 4.31203 3.68125 4.31203ZM12 3.09015C11.3094 3.09015 10.75 3.64953 10.75 4.34015C10.75 5.03078 11.3094 5.59015 12 5.59015C12.6906 5.59015 13.25 5.03078 13.25 4.34015C13.25 3.64953 12.6906 3.09015 12 3.09015ZM5.20313 15.0276C3.65625 16.5745 0.0148829 16.3245 0.0148829 16.3245C0.0148829 16.3245 -0.234873 12.6558 1.31188 11.137C2.38656 10.062 4.12813 10.062 5.20313 11.137C6.27813 12.212 6.27813 13.9527 5.20313 15.0276ZM3.74375 12.5964C3.38438 12.2402 2.80656 12.2402 2.44938 12.5964C1.935 13.112 2.01813 14.3214 2.01813 14.3214C2.01813 14.3214 3.22813 14.4058 3.74375 13.8902C4.1 13.5339 4.1 12.9558 3.74375 12.5964Z" fill="#378B4F"/>
</svg>
