<svg width="18" height="11" viewBox="0 0 18 11" fill="none" xmlns="http://www.w3.org/2000/svg">
<path d="M13.1406 7.77373C12.9923 7.77373 12.8473 7.72975 12.7239 7.64734C12.6006 7.56492 12.5045 7.44779 12.4477 7.31075C12.391 7.1737 12.3761 7.0229 12.405 6.87741C12.434 6.73193 12.5054 6.59829 12.6103 6.4934C12.7152 6.38851 12.8488 6.31708 12.9943 6.28814C13.1398 6.2592 13.2906 6.27406 13.4276 6.33082C13.5647 6.38759 13.6818 6.48372 13.7642 6.60705C13.8466 6.73039 13.8906 6.8754 13.8906 7.02373C13.8906 7.22264 13.8116 7.41341 13.671 7.55406C13.5303 7.69472 13.3395 7.77373 13.1406 7.77373ZM4.85625 7.77373C4.70791 7.77373 4.56291 7.72975 4.43957 7.64734C4.31624 7.56492 4.22011 7.44779 4.16334 7.31075C4.10658 7.1737 4.09172 7.0229 4.12066 6.87741C4.1496 6.73193 4.22103 6.59829 4.32592 6.4934C4.43081 6.38851 4.56445 6.31708 4.70993 6.28814C4.85542 6.2592 5.00622 6.27406 5.14326 6.33082C5.28031 6.38759 5.39744 6.48372 5.47985 6.60705C5.56226 6.73039 5.60625 6.8754 5.60625 7.02373C5.60625 7.22264 5.52723 7.41341 5.38658 7.55406C5.24593 7.69472 5.05516 7.77373 4.85625 7.77373ZM13.4094 3.25811L14.9075 0.664357C14.9313 0.628835 14.9476 0.588798 14.9554 0.546725C14.9631 0.504652 14.9621 0.461439 14.9525 0.419763C14.9428 0.378087 14.9247 0.338835 14.8993 0.304439C14.8738 0.270043 14.8416 0.241235 14.8046 0.219799C14.7676 0.198364 14.7266 0.184757 14.6841 0.179821C14.6416 0.174886 14.5985 0.178727 14.5576 0.191107C14.5166 0.203487 14.4787 0.224142 14.446 0.251793C14.4134 0.279444 14.3868 0.313502 14.3678 0.351857L12.8509 2.97904C11.6391 2.43553 10.326 2.15454 8.99781 2.15454C7.66966 2.15454 6.35654 2.43553 5.14469 2.97904L3.63125 0.35342C3.61231 0.315064 3.58569 0.281006 3.55305 0.253356C3.52041 0.225705 3.48244 0.20505 3.4415 0.19267C3.40055 0.18029 3.3575 0.176448 3.315 0.181384C3.27251 0.186319 3.23148 0.199926 3.19446 0.221362C3.15745 0.242798 3.12522 0.271606 3.09979 0.306002C3.07435 0.340398 3.05625 0.37965 3.04661 0.421326C3.03696 0.463001 3.03597 0.506214 3.04371 0.548287C3.05144 0.59036 3.06773 0.630398 3.09156 0.66592L4.58969 3.25967C2.01656 4.65811 0.2575 7.26123 0 10.3394H18C17.7425 7.26279 15.9831 4.65811 13.4094 3.25811Z" fill="#378B4F"/>
</svg>
