<svg width="16" height="17" viewBox="0 0 16 17" fill="none" xmlns="http://www.w3.org/2000/svg">
<path d="M12.8562 5.82422C13.0437 6.13359 13.0469 6.51797 12.8687 6.83359C12.6937 7.14609 12.3594 7.31172 12 7.31172H6C5.64062 7.31172 5.30625 7.14609 5.13125 6.83359C4.95312 6.51797 4.95625 6.13359 5.14375 5.82422L8.14375 0.825469C8.32188 0.524125 8.65 0.339844 9 0.339844C9.35 0.339844 9.67812 0.524156 9.85625 0.825469L12.8562 5.82422ZM9 10.0898C9 9.39922 9.55937 8.83984 10.25 8.83984H14.75C15.4406 8.83984 16 9.39922 16 10.0898V14.5898C16 15.2805 15.4406 15.8398 14.75 15.8398H10.25C9.55937 15.8398 9 15.2805 9 14.5898V10.0898ZM0 12.3398C0 10.1305 1.79094 8.33984 4 8.33984C6.20937 8.33984 8 10.1305 8 12.3398C8 14.5492 6.20937 16.3398 4 16.3398C1.79094 16.3398 0 14.5492 0 12.3398Z" fill="#378B4F"/>
</svg>
