<svg width="16" height="15" viewBox="0 0 16 15" fill="none" xmlns="http://www.w3.org/2000/svg">
<path d="M15 8.33984H1C0.449375 8.33984 0 8.78922 0 9.33984V13.3398C0 13.8905 0.449375 14.3398 1 14.3398H15C15.5506 14.3398 16 13.8905 16 13.3398V9.33984C16 8.78984 15.55 8.33984 15 8.33984ZM11 12.0898C10.5859 12.0898 10.25 11.7539 10.25 11.3398C10.25 10.9258 10.5859 10.5898 11 10.5898C11.4141 10.5898 11.75 10.9258 11.75 11.3398C11.75 11.7539 11.4156 12.0898 11 12.0898ZM13 12.0898C12.5859 12.0898 12.25 11.7539 12.25 11.3398C12.25 10.9258 12.5859 10.5898 13 10.5898C13.4141 10.5898 13.75 10.9258 13.75 11.3398C13.75 11.7539 13.4156 12.0898 13 12.0898ZM15 0.339844H1C0.449375 0.339844 0 0.789219 0 1.33984V5.33984C0 5.89047 0.449375 6.33984 1 6.33984H15C15.5506 6.33984 16 5.89047 16 5.33984V1.33984C16 0.789219 15.55 0.339844 15 0.339844ZM11 4.08984C10.5859 4.08984 10.25 3.75391 10.25 3.33984C10.25 2.92578 10.5875 2.58984 11 2.58984C11.4125 2.58984 11.75 2.92734 11.75 3.33984C11.75 3.75234 11.4156 4.08984 11 4.08984ZM13 4.08984C12.5859 4.08984 12.25 3.75391 12.25 3.33984C12.25 2.92578 12.5875 2.58984 13 2.58984C13.4125 2.58984 13.75 2.92734 13.75 3.33984C13.75 3.75234 13.4156 4.08984 13 4.08984Z" fill="#378B4F"/>
</svg>
