<svg width="20" height="13" viewBox="0 0 20 13" fill="none" xmlns="http://www.w3.org/2000/svg">
<path d="M14 0.339844H6C2.68625 0.339844 0 2.99922 0 6.33984C0 9.68047 2.68625 12.3398 6 12.3398H14C17.3125 12.3398 20 9.65359 20 6.33984C20 3.02609 17.3125 0.339844 14 0.339844ZM7.72188 7.08984H6.72188V8.08984C6.72188 8.50234 6.385 8.83984 5.9725 8.83984C5.56 8.83984 5.22188 8.50234 5.22188 8.08984V7.08984L4.25 7.06172C3.8375 7.06172 3.47187 6.75234 3.47187 6.33984C3.47187 5.92734 3.81094 5.58953 4.22344 5.58953L5.22188 5.58984V4.58984C5.22188 4.17734 5.56 3.83984 5.9725 3.83984C6.385 3.83984 6.72188 4.17734 6.72188 4.58984V5.58984H7.72188C8.13438 5.58984 8.4725 5.92734 8.4725 6.33984C8.47188 6.75234 8.1625 7.08984 7.72188 7.08984ZM13.4719 9.08984C12.7806 9.08984 12.25 8.53141 12.25 7.86797C12.25 7.20453 12.8084 6.61797 13.4719 6.61797C14.1353 6.61797 14.6938 7.17672 14.6938 7.86797C14.6938 8.55922 14.1906 9.08984 13.4719 9.08984ZM15.4719 6.08984C14.7806 6.08984 14.25 5.53141 14.25 4.86797C14.25 4.20453 14.8084 3.61797 15.4719 3.61797C16.1631 3.61797 16.6938 4.17672 16.6938 4.86797C16.6938 5.55922 16.1906 6.08984 15.4719 6.08984Z" fill="#378B4F"/>
</svg>
