<svg width="24" height="25" viewBox="0 0 24 25" fill="none" xmlns="http://www.w3.org/2000/svg">
<path d="M11.25 6.5118V20.4218C11.25 21.1318 10.53 21.6218 9.87998 21.3518C8.01998 20.5718 5.70998 19.8918 4.06998 19.6718L3.75998 19.6318C2.78998 19.5118 1.99998 18.6218 1.99998 17.6518V5.7618C1.99998 4.5618 2.96998 3.5918 4.16998 3.5918H4.23998C6.11998 3.7518 8.88998 4.6318 10.72 5.6218C11.05 5.8018 11.25 6.1318 11.25 6.5118Z" fill="#378B4F"/>
<path d="M19.83 3.5918H19.77C19.53 3.6118 19.27 3.6418 19 3.6918C17.77 3.8918 16.31 4.3118 15 4.8318C14.38 5.0818 13.8 5.3518 13.29 5.6218C12.96 5.8018 12.75 6.1418 12.75 6.5118V20.4218C12.75 21.1318 13.47 21.6218 14.12 21.3518C15.98 20.5718 18.29 19.8918 19.93 19.6718L20.24 19.6318C21.21 19.5118 22 18.6218 22 17.6518V5.7618C22 4.5618 21.03 3.5918 19.83 3.5918ZM19.27 14.2418C19.27 14.6318 18.99 14.8018 18.65 14.6118L17.59 14.0218C17.48 13.9618 17.3 13.9618 17.18 14.0218L16.12 14.6118C15.78 14.8018 15.5 14.6318 15.5 14.2418V11.1718C15.5 10.7118 15.88 10.3318 16.34 10.3318H18.44C18.9 10.3318 19.28 10.7118 19.28 11.1718V14.2418H19.27Z" fill="#378B4F"/>
</svg>
