<svg width="19" height="20" viewBox="0 0 19 20" fill="none" xmlns="http://www.w3.org/2000/svg">
<path d="M14.5 0H4.5C2.3 0 0.5 1.8 0.5 4V16C0.5 18.2 2.3 20 4.5 20H14.5C16.7 20 18.5 18.2 18.5 16V4C18.5 1.8 16.7 0 14.5 0ZM8.36 16.14C8.21 16.29 8.02 16.36 7.83 16.36C7.64 16.36 7.45 16.29 7.3 16.14L6.65 15.49L6.03 16.11C5.88 16.26 5.69 16.33 5.5 16.33C5.31 16.33 5.12 16.26 4.97 16.11C4.68 15.82 4.68 15.34 4.97 15.05L5.59 14.43L5 13.84C4.71 13.55 4.71 13.07 5 12.78C5.29 12.49 5.77 12.49 6.06 12.78L6.65 13.37L7.27 12.75C7.56 12.46 8.04 12.46 8.33 12.75C8.62 13.04 8.62 13.52 8.33 13.81L7.71 14.43L8.36 15.08C8.65 15.37 8.65 15.85 8.36 16.14ZM11.99 16.49C11.44 16.49 10.99 16.05 10.99 15.5V15.48C10.99 14.93 11.44 14.48 11.99 14.48C12.54 14.48 12.99 14.93 12.99 15.48C12.99 16.03 12.54 16.49 11.99 16.49ZM14.01 14.33C13.46 14.33 13 13.88 13 13.33C13 12.78 13.44 12.33 13.99 12.33H14.01C14.56 12.33 15.01 12.78 15.01 13.33C15.01 13.88 14.56 14.33 14.01 14.33ZM15.5 7.25C15.5 8.21 14.71 9 13.75 9H5.25C4.29 9 3.5 8.21 3.5 7.25V4.75C3.5 3.79 4.29 3 5.25 3H13.75C14.71 3 15.5 3.79 15.5 4.75V7.25Z" fill="black"/>
</svg>
