<svg width="14" height="14" viewBox="0 0 14 14" fill="none" xmlns="http://www.w3.org/2000/svg">
<path fill-rule="evenodd" clip-rule="evenodd" d="M3.68915 3.72225C3.48844 3.52159 3.16283 3.52159 2.96213 3.72225L2.23496 4.44945C2.03425 4.65016 2.03425 4.97557 2.23496 5.17647L6.3324 9.27375C6.35015 9.29172 6.67635 9.48666 7.00061 9.4864C7.32137 9.48627 7.64014 9.29146 7.65786 9.27375L11.7552 5.17647C11.9558 4.97559 11.9558 4.65016 11.7552 4.44945L11.028 3.72225C10.8273 3.52159 10.5018 3.52159 10.3011 3.72225L7.98731 6.03612V1.04115C7.98731 0.767237 7.76508 0.544922 7.49113 0.544922H6.49899C6.22512 0.544922 6.003 0.767237 6.003 1.04115V6.03612L3.68915 3.72225ZM2.03409 13.4549H11.9558C13.0518 13.4549 13.9402 12.5668 13.9402 11.4707V8.99022C13.9402 8.71632 13.718 8.49423 13.4442 8.49423H12.452C12.178 8.49423 11.9558 8.71632 11.9558 8.99022V10.4786C11.9558 11.0265 11.5117 11.4707 10.9637 11.4707H3.02624C2.47825 11.4707 2.03409 11.0265 2.03409 10.4786V8.99022C2.03409 8.71632 1.81202 8.49423 1.53811 8.49423H0.545781C0.272042 8.49423 0.0498047 8.71632 0.0498047 8.99022V11.4707C0.0498047 12.5668 0.938284 13.4549 2.03409 13.4549Z" fill="white"/>
</svg>
