<svg width="40" height="40" viewBox="0 0 40 40" fill="none" xmlns="http://www.w3.org/2000/svg">
<path d="M30.967 39.7899H8.27069C3.7045 39.7899 0 36.0332 0 31.4028V8.38708C0 3.75663 3.7045 0 8.27069 0H30.967C35.5332 0 39.2377 3.75663 39.2377 8.38708V31.4028C39.2377 36.0371 35.5332 39.7899 30.967 39.7899Z" fill="#378B4F"/>
<path d="M28.4149 29.5612L23.1595 24.3779L26.1287 21.4494C27.5895 20.0087 28.4149 18.0525 28.4149 16.0084C28.4149 11.7622 24.9232 8.31836 20.6179 8.31836H19.2759C19.2759 11.1238 19.2759 13.9234 19.2759 16.764C20.1904 16.764 21.0633 16.764 21.9065 16.764C20.2913 18.357 18.682 19.9384 17.1025 21.4963C15.5645 19.9794 13.9492 18.3922 12.3162 16.7815C13.1891 16.7815 14.068 16.7815 14.9766 16.7815C14.9766 13.9409 14.9766 11.1414 14.9766 8.31836H10.4338C9.57273 8.31836 8.87201 9.00947 8.87201 9.85871L8.88389 31.3241L30.2201 31.33L28.4149 29.5612Z" fill="white"/>
</svg>
