<svg width="24" height="25" viewBox="0 0 24 25" fill="none" xmlns="http://www.w3.org/2000/svg">
<path d="M17 2.51172H6.99998C4.79998 2.51172 2.99998 4.31172 2.99998 6.51172V18.5117C2.99998 20.7117 4.79998 22.5117 6.99998 22.5117H17C19.2 22.5117 21 20.7117 21 18.5117V6.51172C21 4.31172 19.2 2.51172 17 2.51172ZM10.86 18.6517C10.71 18.8017 10.52 18.8717 10.33 18.8717C10.14 18.8717 9.94998 18.8017 9.79998 18.6517L9.14998 18.0017L8.52998 18.6217C8.37998 18.7717 8.18998 18.8417 7.99998 18.8417C7.80998 18.8417 7.61998 18.7717 7.46998 18.6217C7.17998 18.3317 7.17998 17.8517 7.46998 17.5617L8.08998 16.9417L7.49998 16.3517C7.20998 16.0617 7.20998 15.5817 7.49998 15.2917C7.78998 15.0017 8.26999 15.0017 8.55999 15.2917L9.14998 15.8817L9.76999 15.2617C10.06 14.9717 10.54 14.9717 10.83 15.2617C11.12 15.5517 11.12 16.0317 10.83 16.3217L10.21 16.9417L10.86 17.5917C11.15 17.8817 11.15 18.3617 10.86 18.6517ZM14.49 19.0017C13.94 19.0017 13.49 18.5617 13.49 18.0117V17.9917C13.49 17.4417 13.94 16.9917 14.49 16.9917C15.04 16.9917 15.49 17.4417 15.49 17.9917C15.49 18.5417 15.04 19.0017 14.49 19.0017ZM16.51 16.8417C15.96 16.8417 15.5 16.3917 15.5 15.8417C15.5 15.2917 15.94 14.8417 16.49 14.8417H16.51C17.06 14.8417 17.51 15.2917 17.51 15.8417C17.51 16.3917 17.06 16.8417 16.51 16.8417ZM18 9.76172C18 10.7217 17.21 11.5117 16.25 11.5117H7.74998C6.78998 11.5117 5.99998 10.7217 5.99998 9.76172V7.26172C5.99998 6.30172 6.78998 5.51172 7.74998 5.51172H16.25C17.21 5.51172 18 6.30172 18 7.26172V9.76172Z" fill="#378B4F"/>
</svg>
