<svg width="41" height="41" viewBox="0 0 41 41" fill="none" xmlns="http://www.w3.org/2000/svg">
<rect x="0.5" y="0.5" width="40" height="40" rx="20" fill="#F4F4F4"/>
<g clip-path="url(#clip0_2035_1266)">
<g clip-path="url(#clip1_2035_1266)">
<path d="M20.5013 12.166C22.7655 12.166 23.048 12.1744 23.9363 12.216C24.8238 12.2577 25.428 12.3969 25.9597 12.6035C26.5097 12.8152 26.973 13.1019 27.4363 13.5644C27.8601 13.9809 28.188 14.4848 28.3972 15.041C28.603 15.5719 28.743 16.1769 28.7847 17.0644C28.8238 17.9527 28.8347 18.2352 28.8347 20.4993C28.8347 22.7635 28.8263 23.046 28.7847 23.9343C28.743 24.8218 28.603 25.426 28.3972 25.9577C28.1886 26.5141 27.8606 27.0182 27.4363 27.4343C27.0196 27.8579 26.5158 28.1858 25.9597 28.3952C25.4288 28.601 24.8238 28.741 23.9363 28.7827C23.048 28.8218 22.7655 28.8327 20.5013 28.8327C18.2371 28.8327 17.9546 28.8243 17.0663 28.7827C16.1788 28.741 15.5746 28.601 15.043 28.3952C14.4866 28.1864 13.9826 27.8584 13.5663 27.4343C13.1425 27.0178 12.8146 26.5139 12.6055 25.9577C12.3988 25.4268 12.2596 24.8218 12.218 23.9343C12.1788 23.046 12.168 22.7635 12.168 20.4993C12.168 18.2352 12.1763 17.9527 12.218 17.0644C12.2596 16.176 12.3988 15.5727 12.6055 15.041C12.814 14.4845 13.142 13.9805 13.5663 13.5644C13.9827 13.1404 14.4867 12.8125 15.043 12.6035C15.5746 12.3969 16.178 12.2577 17.0663 12.216C17.9546 12.1769 18.2371 12.166 20.5013 12.166ZM20.5013 16.3327C19.3962 16.3327 18.3364 16.7717 17.555 17.5531C16.7736 18.3345 16.3346 19.3943 16.3346 20.4993C16.3346 21.6044 16.7736 22.6642 17.555 23.4456C18.3364 24.227 19.3962 24.666 20.5013 24.666C21.6064 24.666 22.6662 24.227 23.4476 23.4456C24.229 22.6642 24.668 21.6044 24.668 20.4993C24.668 19.3943 24.229 18.3345 23.4476 17.5531C22.6662 16.7717 21.6064 16.3327 20.5013 16.3327ZM25.918 16.1244C25.918 15.8481 25.8082 15.5831 25.6129 15.3878C25.4175 15.1924 25.1526 15.0827 24.8763 15.0827C24.6001 15.0827 24.3351 15.1924 24.1398 15.3878C23.9444 15.5831 23.8347 15.8481 23.8347 16.1244C23.8347 16.4006 23.9444 16.6656 24.1398 16.8609C24.3351 17.0563 24.6001 17.166 24.8763 17.166C25.1526 17.166 25.4175 17.0563 25.6129 16.8609C25.8082 16.6656 25.918 16.4006 25.918 16.1244ZM20.5013 17.9994C21.1644 17.9994 21.8003 18.2627 22.2691 18.7316C22.7379 19.2004 23.0013 19.8363 23.0013 20.4993C23.0013 21.1624 22.7379 21.7983 22.2691 22.2671C21.8003 22.7359 21.1644 22.9993 20.5013 22.9993C19.8383 22.9993 19.2024 22.7359 18.7335 22.2671C18.2647 21.7983 18.0013 21.1624 18.0013 20.4993C18.0013 19.8363 18.2647 19.2004 18.7335 18.7316C19.2024 18.2627 19.8383 17.9994 20.5013 17.9994Z" fill="black"/>
</g>
</g>
<defs>
<clipPath id="clip0_2035_1266">
<rect width="20" height="20" fill="white" transform="translate(10.5 10.5)"/>
</clipPath>
<clipPath id="clip1_2035_1266">
<rect width="20" height="20" fill="white" transform="translate(10.5 10.5)"/>
</clipPath>
</defs>
</svg>
