<svg width="41" height="41" viewBox="0 0 41 41" fill="none" xmlns="http://www.w3.org/2000/svg">
<rect x="0.5" y="0.5" width="40" height="40" rx="20" fill="#F4F4F4"/>
<g clip-path="url(#clip0_2035_1260)">
<g clip-path="url(#clip1_2035_1260)">
<path d="M16.2825 14.6655C16.2823 15.1076 16.1065 15.5314 15.7938 15.8438C15.4811 16.1562 15.0571 16.3316 14.615 16.3314C14.173 16.3312 13.7492 16.1554 13.4368 15.8426C13.1244 15.5299 12.949 15.1059 12.9492 14.6639C12.9494 14.2219 13.1252 13.798 13.438 13.4856C13.7507 13.1732 14.1747 12.9978 14.6167 12.998C15.0587 12.9983 15.4826 13.1741 15.795 13.4868C16.1074 13.7995 16.2828 14.2235 16.2825 14.6655ZM16.3325 17.5655H12.9992V27.9989H16.3325V17.5655ZM21.5992 17.5655H18.2825V27.9989H21.5659V22.5239C21.5659 19.4739 25.5409 19.1905 25.5409 22.5239V27.9989H28.8325V21.3905C28.8325 16.2489 22.9492 16.4405 21.5659 18.9655L21.5992 17.5655Z" fill="black"/>
</g>
</g>
<defs>
<clipPath id="clip0_2035_1260">
<rect width="20" height="20" fill="white" transform="translate(10.5 10.5)"/>
</clipPath>
<clipPath id="clip1_2035_1260">
<rect width="20" height="20" fill="white" transform="translate(10.5 10.5)"/>
</clipPath>
</defs>
</svg>
