<svg width="200" height="40" viewBox="0 0 200 40" fill="none" xmlns="http://www.w3.org/2000/svg">
    <path d="M30.967 39.7899H8.27069C3.7045 39.7899 0 36.0332 0 31.4028V8.38708C0 3.75663 3.7045 0 8.27069 0H30.967C35.5332 0 39.2377 3.75663 39.2377 8.38708V31.4028C39.2377 36.0371 35.5332 39.7899 30.967 39.7899Z" fill="#378B4F"/>
    <path d="M28.4149 29.5612L23.1595 24.3779L26.1287 21.4494C27.5895 20.0087 28.4149 18.0525 28.4149 16.0084C28.4149 11.7622 24.9232 8.31836 20.6179 8.31836H19.2759C19.2759 11.1238 19.2759 13.9234 19.2759 16.764C20.1904 16.764 21.0633 16.764 21.9065 16.764C20.2913 18.357 18.682 19.9384 17.1025 21.4963C15.5645 19.9794 13.9492 18.3922 12.3162 16.7815C13.1891 16.7815 14.068 16.7815 14.9766 16.7815C14.9766 13.9409 14.9766 11.1414 14.9766 8.31836H10.4338C9.57273 8.31836 8.87201 9.00947 8.87201 9.85871L8.88389 31.3241L30.2201 31.33L28.4149 29.5612Z" fill="white"/>
    <path d="M57.4013 26.6149L54.2498 21.384H52.5928V26.6149H49.1489V11.3121H55.7877C57.3111 11.3121 58.5782 11.7994 59.589 12.7741C60.5998 13.7488 61.1052 14.969 61.1052 16.4347C61.1052 17.496 60.82 18.431 60.2496 19.2397C59.6792 20.0411 58.9139 20.6295 57.9537 21.0049L61.5276 26.6149H57.4013ZM52.5928 14.5503V18.3841H55.7119C56.2389 18.3841 56.6793 18.2036 57.0331 17.8426C57.3941 17.4744 57.5746 17.0195 57.5746 16.478C57.5746 15.9293 57.3977 15.4708 57.0439 15.1026C56.6902 14.7344 56.2461 14.5503 55.7119 14.5503H52.5928Z" fill="black"/>
    <path d="M74.1012 21.0049C74.1012 21.3948 74.0796 21.7342 74.0362 22.023H65.6105C65.8126 22.6583 66.17 23.1565 66.6827 23.5175C67.1953 23.8785 67.8054 24.059 68.5129 24.059C69.1194 24.059 69.6717 23.9399 70.1699 23.7016C70.6681 23.4634 71.0616 23.1637 71.3504 22.8027L73.5272 24.6872C72.9135 25.3803 72.1663 25.9218 71.2854 26.3117C70.4046 26.6943 69.4515 26.8856 68.4263 26.8856C66.6285 26.8856 65.1267 26.3153 63.921 25.1745C62.7225 24.0265 62.1232 22.6006 62.1232 20.8966C62.1232 19.8064 62.3831 18.8137 62.903 17.9184C63.43 17.0231 64.1557 16.3192 65.0798 15.8065C66.004 15.2939 67.0292 15.0376 68.1555 15.0376C69.8522 15.0376 71.2674 15.6044 72.4009 16.7379C73.5344 17.8715 74.1012 19.2938 74.1012 21.0049ZM68.1122 17.8318C67.5057 17.8318 66.9751 18.0159 66.5202 18.3841C66.0653 18.7451 65.7549 19.2397 65.5888 19.8678H70.6681C70.4876 19.2324 70.1699 18.7343 69.7151 18.3733C69.2602 18.0123 68.7259 17.8318 68.1122 17.8318Z" fill="black"/>
    <path d="M84.2164 15.3084H87.4546V26.6149H84.2164V25.4886C83.3067 26.42 82.166 26.8856 80.7942 26.8856C79.2419 26.8856 77.9423 26.3189 76.8954 25.1853C75.8557 24.0518 75.3358 22.6439 75.3358 20.9616C75.3358 19.2794 75.8557 17.8715 76.8954 16.7379C77.9423 15.6044 79.2419 15.0376 80.7942 15.0376C82.166 15.0376 83.3067 15.5033 84.2164 16.4347V15.3084ZM81.444 23.7558C82.2382 23.7558 82.8988 23.4886 83.4259 22.9543C83.9529 22.4201 84.2164 21.7558 84.2164 20.9616C84.2164 20.1674 83.9529 19.5032 83.4259 18.9689C82.8988 18.4346 82.2382 18.1675 81.444 18.1675C80.657 18.1675 80 18.4346 79.4729 18.9689C78.9531 19.5032 78.6931 20.1674 78.6931 20.9616C78.6931 21.7558 78.9531 22.4201 79.4729 22.9543C80 23.4886 80.657 23.7558 81.444 23.7558Z" fill="black"/>
    <path d="M96.671 15.0376C98.2305 15.0376 99.5301 15.6044 100.57 16.7379C101.609 17.8642 102.129 19.2721 102.129 20.9616C102.129 22.6511 101.609 24.0626 100.57 25.1962C99.5301 26.3225 98.2305 26.8856 96.671 26.8856C95.3064 26.8856 94.1692 26.42 93.2595 25.4886V30.8278H90.0213V15.3084H93.2595V16.4347C94.1692 15.5033 95.3064 15.0376 96.671 15.0376ZM94.0501 22.9543C94.5772 23.4886 95.2378 23.7558 96.032 23.7558C96.8262 23.7558 97.4868 23.4886 98.0139 22.9543C98.5409 22.4201 98.8045 21.7558 98.8045 20.9616C98.8045 20.1674 98.5409 19.5032 98.0139 18.9689C97.4868 18.4346 96.8262 18.1675 96.032 18.1675C95.2378 18.1675 94.5772 18.4346 94.0501 18.9689C93.523 19.5032 93.2595 20.1674 93.2595 20.9616C93.2595 21.7558 93.523 22.4201 94.0501 22.9543Z" fill="black"/>
    <path d="M110.728 15.0376C112.288 15.0376 113.587 15.6044 114.627 16.7379C115.667 17.8642 116.187 19.2721 116.187 20.9616C116.187 22.6511 115.667 24.0626 114.627 25.1962C113.587 26.3225 112.288 26.8856 110.728 26.8856C109.364 26.8856 108.227 26.42 107.317 25.4886V30.8278H104.079V15.3084H107.317V16.4347C108.227 15.5033 109.364 15.0376 110.728 15.0376ZM108.107 22.9543C108.635 23.4886 109.295 23.7558 110.089 23.7558C110.884 23.7558 111.544 23.4886 112.071 22.9543C112.598 22.4201 112.862 21.7558 112.862 20.9616C112.862 20.1674 112.598 19.5032 112.071 18.9689C111.544 18.4346 110.884 18.1675 110.089 18.1675C109.295 18.1675 108.635 18.4346 108.107 18.9689C107.58 19.5032 107.317 20.1674 107.317 20.9616C107.317 21.7558 107.58 22.4201 108.107 22.9543Z" fill="black"/>
    <path d="M118.136 26.6149V10.6406H121.374V26.6149H118.136Z" fill="black"/>
    <path d="M132.193 15.3084H135.432V26.6149H132.193V25.4886C131.284 26.42 130.143 26.8856 128.771 26.8856C127.219 26.8856 125.919 26.3189 124.872 25.1853C123.833 24.0518 123.313 22.6439 123.313 20.9616C123.313 19.2794 123.833 17.8715 124.872 16.7379C125.919 15.6044 127.219 15.0376 128.771 15.0376C130.143 15.0376 131.284 15.5033 132.193 16.4347V15.3084ZM129.421 23.7558C130.215 23.7558 130.876 23.4886 131.403 22.9543C131.93 22.4201 132.193 21.7558 132.193 20.9616C132.193 20.1674 131.93 19.5032 131.403 18.9689C130.876 18.4346 130.215 18.1675 129.421 18.1675C128.634 18.1675 127.977 18.4346 127.45 18.9689C126.93 19.5032 126.67 20.1674 126.67 20.9616C126.67 21.7558 126.93 22.4201 127.45 22.9543C127.977 23.4886 128.634 23.7558 129.421 23.7558Z" fill="black"/>
    <path d="M145.644 15.3084H149.262L143.879 28.4343C143.561 29.2502 143.07 29.8964 142.406 30.3729C141.749 30.8566 141.027 31.0985 140.24 31.0985C139.706 31.0985 139.153 30.9938 138.583 30.7844C138.013 30.5751 137.529 30.2935 137.132 29.9397L138.377 27.4163C138.746 27.7845 139.186 27.9686 139.699 27.9686C140.24 27.9686 140.648 27.6871 140.922 27.1239L141.258 26.42L136.731 15.3084H140.435L143.056 22.4887L145.644 15.3084Z" fill="black"/>
    <path d="M151.915 26.7665C151.511 26.7665 151.171 26.6293 150.897 26.355C150.63 26.0806 150.496 25.7449 150.496 25.3478C150.496 24.9507 150.63 24.615 150.897 24.3406C151.171 24.0662 151.511 23.9291 151.915 23.9291C152.326 23.9291 152.669 24.0662 152.944 24.3406C153.218 24.6077 153.355 24.9435 153.355 25.3478C153.355 25.7521 153.218 26.0914 152.944 26.3658C152.669 26.6329 152.326 26.7665 151.915 26.7665Z" fill="black"/>
    <path d="M161.023 26.8856C159.897 26.8856 158.871 26.6293 157.947 26.1167C157.023 25.5969 156.297 24.8857 155.77 23.9832C155.25 23.0735 154.991 22.0663 154.991 20.9616C154.991 19.857 155.25 18.8534 155.77 17.9509C156.297 17.0412 157.023 16.33 157.947 15.8174C158.871 15.2975 159.897 15.0376 161.023 15.0376C162.135 15.0376 163.146 15.2939 164.055 15.8065C164.965 16.3119 165.676 17.0015 166.189 17.8751L164.532 18.8714C164.185 18.2577 163.702 17.774 163.081 17.4202C162.46 17.0592 161.774 16.8787 161.023 16.8787C159.86 16.8787 158.893 17.2686 158.12 18.0484C157.348 18.8281 156.962 19.7992 156.962 20.9616C156.962 22.124 157.348 23.0951 158.12 23.8749C158.893 24.6547 159.86 25.0445 161.023 25.0445C161.774 25.0445 162.46 24.864 163.081 24.503C163.702 24.142 164.185 23.6547 164.532 23.041L166.189 24.0374C165.676 24.9182 164.961 25.6149 164.044 26.1275C163.135 26.6329 162.128 26.8856 161.023 26.8856Z" fill="black"/>
    <path d="M173.694 26.8856C172.568 26.8856 171.542 26.6293 170.618 26.1167C169.694 25.5969 168.969 24.8857 168.441 23.9832C167.922 23.0735 167.662 22.0663 167.662 20.9616C167.662 19.857 167.922 18.8534 168.441 17.9509C168.969 17.0412 169.694 16.33 170.618 15.8174C171.542 15.2975 172.568 15.0376 173.694 15.0376C175.398 15.0376 176.824 15.6044 177.972 16.7379C179.127 17.8715 179.705 19.2794 179.705 20.9616C179.705 22.6439 179.127 24.0518 177.972 25.1853C176.824 26.3189 175.398 26.8856 173.694 26.8856ZM173.694 25.0445C174.849 25.0445 175.809 24.6547 176.575 23.8749C177.347 23.0951 177.734 22.124 177.734 20.9616C177.734 19.7992 177.347 18.8281 176.575 18.0484C175.809 17.2686 174.849 16.8787 173.694 16.8787C172.532 16.8787 171.564 17.2686 170.792 18.0484C170.019 18.8281 169.633 19.7992 169.633 20.9616C169.633 22.124 170.019 23.0951 170.792 23.8749C171.564 24.6547 172.532 25.0445 173.694 25.0445Z" fill="black"/>
    <path d="M195.722 15.0376C197.022 15.0376 198.058 15.4275 198.83 16.2073C199.61 16.9798 200 18.0159 200 19.3155V26.6149H198.094V19.8461C198.094 18.9436 197.823 18.2252 197.282 17.691C196.747 17.1495 196.033 16.8787 195.137 16.8787C194.213 16.8787 193.47 17.1531 192.906 17.7018C192.343 18.2505 192.062 18.9797 192.062 19.8895V26.6149H190.156V19.8461C190.156 18.9436 189.885 18.2252 189.343 17.691C188.809 17.1495 188.094 16.8787 187.199 16.8787C186.275 16.8787 185.531 17.1531 184.968 17.7018C184.405 18.2505 184.123 18.9797 184.123 19.8895V26.6149H182.217V15.3084H184.123V16.8354C184.982 15.6369 186.217 15.0376 187.827 15.0376C188.708 15.0376 189.477 15.2326 190.134 15.6224C190.791 16.0123 191.286 16.5574 191.618 17.2578C192.044 16.543 192.607 15.9943 193.307 15.6116C194.015 15.2289 194.82 15.0376 195.722 15.0376Z" fill="black"/>
</svg>
