<svg width="155" height="42" viewBox="0 0 155 42" fill="none" xmlns="http://www.w3.org/2000/svg">
<path d="M104.576 22.5674C105.217 21.394 106.07 20.4775 107.157 19.8368C108.245 19.1756 109.461 18.8552 110.783 18.8552C111.977 18.8552 113.022 19.0899 113.897 19.5593C114.793 20.0287 115.497 20.6043 116.029 21.3083V19.1105H119.186V34.2778H116.029V32.0166C115.497 32.7412 114.771 33.3391 113.854 33.8085C112.936 34.2778 111.891 34.5331 110.718 34.5331C109.416 34.5331 108.223 34.1922 107.135 33.5309C106.047 32.8697 105.195 31.9309 104.556 30.7147C103.915 29.5207 103.595 28.1554 103.595 26.6188C103.617 25.1062 103.937 23.7409 104.576 22.5674ZM115.391 23.9533C114.964 23.1858 114.387 22.588 113.705 22.182C113.001 21.776 112.255 21.5841 111.444 21.5841C110.634 21.5841 109.887 21.776 109.184 22.182C108.48 22.588 107.925 23.1636 107.498 23.9105C107.072 24.6779 106.858 25.5738 106.858 26.6205C106.858 27.6655 107.072 28.5837 107.498 29.3717C107.925 30.1614 108.502 30.7575 109.206 31.1841C109.91 31.5901 110.655 31.8025 111.444 31.8025C112.255 31.8025 113.001 31.6106 113.705 31.2046C114.409 30.7986 114.964 30.2025 115.391 29.4333C115.817 28.6436 116.029 27.7477 116.029 26.7027C116.031 25.6389 115.817 24.7224 115.391 23.9533ZM128.658 19.5816C129.576 19.1122 130.62 18.857 131.771 18.857C133.094 18.857 134.31 19.1773 135.397 19.8385C136.485 20.4998 137.338 21.3957 137.979 22.5691C138.597 23.7426 138.917 25.0856 138.917 26.6222C138.917 28.1365 138.597 29.5018 137.979 30.7181C137.36 31.9121 136.487 32.8509 135.397 33.5344C134.31 34.1956 133.094 34.5365 131.771 34.5365C130.62 34.5365 129.596 34.3018 128.678 33.8324C127.782 33.3631 127.036 32.7875 126.481 32.0834V41.4915H123.345V19.1122H126.481V21.3529C126.995 20.6471 127.719 20.051 128.658 19.5816ZM135.057 23.9122C134.63 23.1447 134.055 22.5674 133.351 22.1837C132.647 21.7777 131.879 21.5858 131.09 21.5858C130.302 21.5858 129.555 21.7777 128.851 22.1837C128.147 22.5897 127.572 23.1653 127.144 23.955C126.717 24.7224 126.505 25.6406 126.505 26.6856C126.505 27.7306 126.719 28.6487 127.144 29.4162C127.57 30.2059 128.147 30.7815 128.851 31.1875C129.555 31.5935 130.302 31.7853 131.09 31.7853C131.9 31.7853 132.647 31.5712 133.351 31.1669C134.055 30.7609 134.63 30.1425 135.057 29.3528C135.483 28.5631 135.697 27.6466 135.697 26.6017C135.697 25.5755 135.483 24.6796 135.057 23.9122ZM148.003 26.7062L155 34.2795H150.756L145.146 27.7511V34.2795H142.012V13.9062H145.146V25.7451L150.65 19.1105H155L148.003 26.7062Z" fill="#378B4F"/>
<path d="M40.5034 37.2446V40.9139H29.4338V24.9792C29.4338 23.7629 29.3054 22.9098 29.0502 22.4404C28.795 21.971 28.3257 21.7364 27.6646 21.7364C26.4279 21.7364 25.8096 22.8241 25.8096 25.022V40.9157H14.7178V24.9809C14.7178 23.7646 14.5893 22.9115 14.3119 22.4421C14.0567 21.9728 13.5874 21.7381 12.904 21.7381C11.6879 21.7381 11.0696 22.8259 11.0696 25.0237V40.9174H0V22.7419C0 19.4357 1.10987 16.6195 3.34845 14.2949C5.58704 11.9703 8.27608 10.8174 11.4533 10.8174C14.7383 10.8174 17.6603 12.2032 20.2843 14.9561C23.1857 12.1827 26.0854 10.8174 28.9868 10.8174C32.6761 10.8174 35.6409 12.1604 37.8589 14.8499C38.3488 15.4478 38.7753 16.109 39.1384 16.8764C37.4958 19.5642 36.6857 22.658 36.6857 26.0926C36.6857 30.3102 37.9651 34.0446 40.5034 37.2446Z" fill="black"/>
<path d="M100.397 0.487793V25.0837C100.397 29.6062 99.2033 33.2755 96.8346 36.1346C95.4695 37.7774 93.7413 39.0794 91.6295 40.0387C89.5177 40.998 87.3647 41.4896 85.1672 41.4896C80.774 41.4896 77.0624 40.0181 74.0326 37.0528C73.094 36.1141 72.2838 35.1325 71.6433 34.067C71.6124 34.019 71.5833 33.9693 71.5542 33.9197C71.6844 33.6507 71.806 33.3783 71.9207 33.1025C72.8165 30.9544 73.2704 28.6023 73.2704 26.1116C73.2704 23.6516 72.8216 21.3236 71.9379 19.1891C71.83 18.927 71.7152 18.6684 71.5936 18.4131C71.6244 18.3617 71.6552 18.3104 71.6861 18.2607C72.3267 17.2363 73.094 16.2547 74.0103 15.3382C77.0179 12.3095 80.5582 10.7729 84.674 10.7729C85.121 10.7729 85.741 10.7935 86.5289 10.8586V22.4645C85.9962 22.2075 85.4413 22.0808 84.9086 22.0808C83.7576 22.0808 82.7762 22.5073 81.9644 23.3399C81.1542 24.1724 80.7278 25.1951 80.7278 26.3685C80.7278 27.5197 81.1542 28.5013 82.0072 29.3116C82.8602 30.1218 83.8621 30.5484 85.0576 30.5484C87.894 30.5484 89.3224 28.5852 89.3224 24.6606V9.61834L89.3858 9.27744H89.3224V0.487793H100.397Z" fill="black"/>
<path d="M70.4991 26.1114C70.4991 30.3751 68.9833 34.0085 65.9534 37.0098C65.592 37.3678 65.2203 37.7053 64.8401 38.0205C64.4924 38.31 64.1362 38.5806 63.7731 38.8342C61.2159 40.6192 58.2854 41.5117 54.9814 41.5117C51.3504 41.5117 48.1664 40.4307 45.4294 38.2671C45.0663 37.9793 44.71 37.6744 44.3623 37.3489C44.239 37.2342 44.1174 37.116 43.9958 36.9961C40.9556 33.9845 39.4364 30.358 39.4364 26.1131C39.4364 21.7893 40.9573 18.1508 43.9958 15.1992C47.0359 12.2476 50.7869 10.771 55.2469 10.771C59.4312 10.771 63.0194 12.2768 66.0099 15.2866C69.0038 18.2964 70.4991 21.9058 70.4991 26.1114Z" fill="#378B4F"/>
<path d="M48.7796 24.5728H53.0461C53.452 24.5728 53.7705 24.8931 53.7705 25.2974V29.5646C53.7705 29.9706 53.4503 30.2892 53.0461 30.2892H48.7796C48.3736 30.2892 48.0551 29.9689 48.0551 29.5646V25.2974C48.0551 24.9137 48.3753 24.5728 48.7796 24.5728Z" fill="white"/>
<path d="M56.117 24.5728H60.3835C60.7894 24.5728 61.108 24.8931 61.108 25.2974V29.5646C61.108 29.9706 60.7877 30.2892 60.3835 30.2892H56.117C55.7111 30.2892 55.3925 29.9689 55.3925 29.5646V25.2974C55.3925 24.9137 55.7334 24.5728 56.117 24.5728Z" fill="white"/>
<path d="M48.7796 31.9321H53.0461C53.452 31.9321 53.7705 32.2525 53.7705 32.6567V36.924C53.7705 37.3299 53.4503 37.6486 53.0461 37.6486H48.7796C48.3736 37.6486 48.0551 37.3282 48.0551 36.924V32.6585C48.0551 32.2525 48.3753 31.9321 48.7796 31.9321Z" fill="white"/>
<path fill-rule="evenodd" clip-rule="evenodd" d="M64.8402 24.124V38.0203C64.4925 38.3098 64.1362 38.5805 63.7731 38.834V24.1258C63.7731 22.9523 62.814 21.993 61.6407 21.993H47.5635C46.3903 21.993 45.4311 22.9523 45.4311 24.1258V38.267C45.068 37.9792 44.7118 37.6743 44.3641 37.3488V24.1258C44.3641 22.3545 45.7925 20.9258 47.5635 20.9258H61.6407C63.4117 20.9258 64.8402 22.3545 64.8402 24.124Z" fill="white"/>
</svg>
