<svg width="24" height="25" viewBox="0 0 24 25" fill="none" xmlns="http://www.w3.org/2000/svg">
<path d="M16.24 2.51172H7.75998C4.99998 2.51172 3.99998 3.51172 3.99998 6.32172V18.7017C3.99998 21.5117 4.99998 22.5117 7.75998 22.5117H16.23C19 22.5117 20 21.5117 20 18.7017V6.32172C20 3.51172 19 2.51172 16.24 2.51172ZM12 19.8117C11.04 19.8117 10.25 19.0217 10.25 18.0617C10.25 17.1017 11.04 16.3117 12 16.3117C12.96 16.3117 13.75 17.1017 13.75 18.0617C13.75 19.0217 12.96 19.8117 12 19.8117ZM14 6.76172H9.99998C9.58998 6.76172 9.24998 6.42172 9.24998 6.01172C9.24998 5.60172 9.58998 5.26172 9.99998 5.26172H14C14.41 5.26172 14.75 5.60172 14.75 6.01172C14.75 6.42172 14.41 6.76172 14 6.76172Z" fill="#378B4F"/>
</svg>
