<svg width="11" height="11" viewBox="0 0 11 11" fill="none" xmlns="http://www.w3.org/2000/svg">
<path d="M5.49992 0.932617C4.40825 0.932617 3.52075 1.82012 3.52075 2.91178C3.52075 3.98262 4.35825 4.84928 5.44992 4.88678C5.48325 4.88262 5.51659 4.88262 5.54159 4.88678C5.54992 4.88678 5.55409 4.88678 5.56242 4.88678C5.56659 4.88678 5.56659 4.88678 5.57075 4.88678C6.63742 4.84928 7.47492 3.98262 7.47909 2.91178C7.47909 1.82012 6.59159 0.932617 5.49992 0.932617Z" fill="#292D32"/>
<path d="M7.61665 5.99531C6.45415 5.22031 4.55832 5.22031 3.38748 5.99531C2.85832 6.34948 2.56665 6.82865 2.56665 7.34115C2.56665 7.85365 2.85832 8.32865 3.38332 8.67865C3.96665 9.07031 4.73332 9.26615 5.49998 9.26615C6.26665 9.26615 7.03332 9.07031 7.61665 8.67865C8.14165 8.32448 8.43332 7.84948 8.43332 7.33281C8.42915 6.82031 8.14165 6.34531 7.61665 5.99531Z" fill="#292D32"/>
</svg>
