<svg width="61" height="60" viewBox="0 0 61 60" fill="none" xmlns="http://www.w3.org/2000/svg">
<circle cx="30.5" cy="30" r="30" fill="#F23936"/>
<path d="M34.7339 43.3332V42.0154V41.9876C34.7407 41.2608 35.3365 40.6733 36.0735 40.6665L36.1735 40.6664C38.0823 40.6512 39.7221 39.3254 40.1116 37.4825L40.1257 37.4133L40.818 33.9998L42.0731 33.381C42.7448 33.0498 43.0805 32.8842 43.1532 32.5806C43.2259 32.277 43.0007 31.9808 42.5501 31.3884L40.0068 28.0442C39.7537 27.7114 39.6272 27.545 39.5593 27.369C39.4916 27.193 39.4707 26.9435 39.4291 26.4445C38.9711 20.9693 34.3199 16.6665 28.6497 16.6665C22.676 16.6665 17.8333 21.4421 17.8333 27.3332C17.8333 30.9994 19.7089 34.2336 22.5655 36.1536M22.5655 36.1536V43.3332M22.5655 36.1536C23.392 36.709 24.3005 37.1545 25.2696 37.4686" stroke="white" stroke-width="2" stroke-linecap="round" stroke-linejoin="round"/>
<path d="M33.1667 26L34.3932 27.0572C34.9088 27.5016 35.1667 27.7239 35.1667 28C35.1667 28.2761 34.9088 28.4984 34.3932 28.9428L33.1667 30" stroke="white" stroke-width="2" stroke-linecap="round" stroke-linejoin="round"/>
<path d="M23.8333 26L22.6068 27.0572C22.0912 27.5016 21.8333 27.7239 21.8333 28C21.8333 28.2761 22.0912 28.4984 22.6068 28.9428L23.8333 30" stroke="white" stroke-width="2" stroke-linecap="round" stroke-linejoin="round"/>
<path d="M29.8333 24.6665L27.1667 31.3332" stroke="white" stroke-width="2" stroke-linecap="round" stroke-linejoin="round"/>
</svg>
