<svg width="41" height="41" viewBox="0 0 41 41" fill="none" xmlns="http://www.w3.org/2000/svg">
<rect x="0.5" y="0.5" width="40" height="40" rx="20" fill="#F4F4F4"/>
<g clip-path="url(#clip0_2035_1254)">
<g clip-path="url(#clip1_2035_1254)">
<path d="M28.9663 15.2138C28.3301 15.4952 27.6554 15.68 26.9646 15.7621C27.6927 15.3266 28.2377 14.6413 28.4979 13.8338C27.8146 14.2404 27.0654 14.5254 26.2846 14.6796C25.7601 14.1184 25.0649 13.7462 24.3071 13.6209C23.5492 13.4956 22.7712 13.6242 22.094 13.9866C21.4167 14.3491 20.8782 14.9252 20.5622 15.6253C20.2462 16.3253 20.1703 17.1102 20.3463 17.8579C18.9606 17.7885 17.6049 17.4284 16.3674 16.801C15.1298 16.1736 14.0381 15.293 13.163 14.2163C12.8532 14.7483 12.6904 15.3531 12.6913 15.9688C12.6913 17.1771 13.3063 18.2446 14.2413 18.8696C13.688 18.8522 13.1468 18.7027 12.663 18.4338V18.4771C12.6631 19.2818 12.9416 20.0618 13.4512 20.6846C13.9607 21.3075 14.67 21.735 15.4588 21.8946C14.9451 22.0338 14.4066 22.0543 13.8838 21.9546C14.1062 22.6473 14.5396 23.2531 15.1235 23.6872C15.7073 24.1213 16.4122 24.3619 17.1396 24.3754C16.4167 24.9432 15.5889 25.3629 14.7037 25.6106C13.8185 25.8582 12.8931 25.929 11.9805 25.8188C13.5735 26.8433 15.428 27.3872 17.3221 27.3854C23.7329 27.3854 27.2388 22.0746 27.2388 17.4688C27.2388 17.3188 27.2346 17.1671 27.2279 17.0188C27.9103 16.5256 28.4993 15.9146 28.9671 15.2146L28.9663 15.2138Z" fill="black"/>
</g>
</g>
<defs>
<clipPath id="clip0_2035_1254">
<rect width="20" height="20" fill="white" transform="translate(10.5 10.5)"/>
</clipPath>
<clipPath id="clip1_2035_1254">
<rect width="20" height="20" fill="white" transform="translate(10.5 10.5)"/>
</clipPath>
</defs>
</svg>
